<svg viewBox="0 0 1200 1200">
  <path
     d="m 495,115.75 c -3.35,0.36 -6.65031,0.98938 -9.97031,1.50938 -0.04,3.52 -0.0497,7.03 -0.0297,10.55 -2.19,0.12 -4.40938,0.0603 -6.55938,0.52031 -2.36,1.62 -4.42062,3.73093 -5.94062,6.16093 -2.51,4.37 -1.62938,9.65938 -1.45938,14.45938 -0.21,3.23 3.49969,3.78969 5.77969,4.72969 2.52,-3.11 5.04031,-6.23031 7.82031,-9.12031 0.27,3.15 0.44938,6.30124 0.95938,9.43124 3.16,-0.72 6.34,-1.36031 9.5,-2.12031 0,-7.54 -1.70969,-15.04969 -0.67969,-22.57969 0.56,-4.49 0.59969,-9.02062 0.57969,-13.54062 z m -15.05,19.09062 c 1.5,0.23 3.01031,0.45907 4.52031,0.68907 -1.19,2.91 -2.61969,5.72062 -4.27969,8.39062 -0.17,-3.02 -0.20062,-6.04969 -0.24062,-9.07969 z"
     fill="#828282" id="path6"/>
  <path
     d="m 505.38,116.15 c 2.7,-0.55 6.08,-0.61 7.44,2.31 0.54,2.7 0.59,6.87 -2.52,7.95 -2.19,1.21 -4.85,0.35 -6.59,-1.21 -2.12,-2.89 -1.5,-7.17 1.67,-9.05 z"
     fill="#828282" id="path8"/>
  <path
     d="m 413.9,131.56 c 4.94,-5.19 10.85,-9.59 17.64,-12.01 6.13,8.91 10.8,19.76 8.88,30.76 -0.78,4.12 -0.43,9.2 -4.03,12.09 -4.77,4.04 -10.37,7.41 -16.62,8.44 -4.26,0.67 -8.49,-0.48 -12.68,-1.08 -0.53,-1.9 -1.01,-3.81 -1.45,-5.73 10.15,2.09 20.69,-1.06 29.52,-6.06 -2.38,-10.32 -6.02,-20.4 -11.2,-29.65 -7.25,7.39 -8.63,18.47 -7.52,28.34 -3.39,1.3 -6.84,2.44 -10.28,3.57 -1.67,-10.24 -2.2,-20.83 -6.42,-30.47 -7.31,8.99 -8.59,20.86 -11.12,31.75 -3.17,1.02 -6.33,2.06 -9.55,2.85 -0.35,-7.81 1.06,-16.29 -3.06,-23.39 -1.62,-3.11 -4.56,-5.16 -7.7,-6.54 -2.58,5.42 -2.51,11.44 -2.32,17.3 1.94,0.21 3.88,0.42 5.82,0.67 -1.6,2.44 -3.1,5.45 -6.03,6.47 -1.61,0.03 -3.18,-0.39 -4.75,-0.65 -0.91,-3.8 -1.56,-7.8 -0.46,-11.64 1.79,-6.83 3.87,-14.11 8.9,-19.3 3.05,-0.7 6.18,0.31 9.1,1.18 4.62,1.59 7.21,6.02 9.72,9.89 2.28,-3.97 4.28,-8.22 7.51,-11.54 3.57,-3.21 8.11,-5.15 12.74,-6.29 2,3.57 3.7,7.3 5.36,11.04 z"
     fill="#828282" id="path10"/>
  <path
     d="m 583.25,128 c 3.58,-0.02 7.16,-0.02 10.74,0.18 -2.41,8.34 -5.54,16.45 -8.04,24.76 -1.12,2.49 1.22,4.52 2.26,6.56 -2.41,1.74 -4.88,3.4 -7.37,5.02 -3.96,-2.29 -6.56,-7.06 -4.99,-11.59 2.32,-8.35 5.19,-16.55 7.4,-24.93 z"
     fill="#828282" id="path12"/>
  <path
     d="m 457.23438,129.35469 c -1.07266,0.0205 -2.12907,0.0672 -3.11407,0.0547 -3.95,-0.22 -6.67062,3.27031 -8.79062,6.12031 -0.55,3.48 0.48969,6.97 0.67969,10.45 0.11,3.12 1.59,6.20062 4.35,7.79062 4.13,0.62 8.94062,0.83 12.24062,-2.2 1.89,-2.09 2.88969,-4.79062 3.97969,-7.34062 -3.21,1.49 -6.74,3.23062 -10.2,1.39062 3.15,-1.37 6.39093,-2.53031 9.56093,-3.87031 0.19,-3.1 2.14938,-6.78 -0.14062,-9.5 -1.9875,-2.775 -5.34766,-2.95672 -8.56562,-2.89531 z m -1.475,5.88593 c 1.43,1.73 2.52093,3.68907 3.71093,5.58907 -1.83,0.08 -3.65031,0.13969 -5.47031,0.17969 0.57,-1.93 1.12938,-3.84876 1.75938,-5.76876 z"
     fill="#828282" id="path14"/>
  <path
     d="m 498.24,134.79 c 3.93,-3.99 9.87,-4.38 14.88,-6.28 -0.2,7.98 0.23,15.97 -0.29,23.93 -3.29,0.47 -6.58,0.9 -9.84,1.48 -0.12,-5.15 0.4,-10.33 -0.13,-15.46 -1.21,-1.57 -3.13,-2.4 -4.62,-3.67 z"
     fill="#828282" id="path16"/>
  <path
     d="m 520.26,134.32 c 2.72,-2.91 6.36,-6.07 10.66,-5.37 2.68,0.26 5.45,0.82 7.77,2.28 2.07,1.81 2.71,4.65 3.85,7.06 -3.01,0.71 -6.02,1.83 -9.14,1.65 -1.24,-0.82 -2.28,-1.9 -3.39,-2.87 0.21,2.86 -1.65,6.73 1.28,8.69 2.76,2.39 6.37,0.58 9.38,-0.19 -2.08,3.5 -4.45,7.65 -8.86,8.37 -4.31,0.66 -10.1,-0.61 -11.58,-5.28 -0.8,-4.72 -0.49,-9.6 0.03,-14.34 z"
     fill="#828282" id="path18"/>
  <path
     d="m 556.82031,131.9 c -3.66,2.53 -8.16031,4.61031 -10.02031,8.92031 -1.65,4.05 -2.24938,8.56 -1.65938,12.9 1.29,1.41 2.94938,2.42031 4.50938,3.52031 3.37,-2.48 6.78969,-4.92 10.27969,-7.25 -0.73,2.78 -1.46031,5.56 -2.12031,8.35 3.42,-0.16 6.83093,-0.33 10.26093,-0.4 0.94,-5.26 2.42031,-10.47093 2.82031,-15.81093 -0.51,-7.21 -9.03031,-7.56969 -14.07031,-10.22969 z m -0.47969,7.75 c 1.43,1.07 2.84,2.17062 4.25,3.29062 -1.85,1.88 -3.75093,3.70938 -5.71093,5.45938 0.42,-2.93 0.97093,-5.84 1.46093,-8.75 z"
     fill="#828282" id="path20"/>
  <path
     d="m 624.43,147.46 c 6.05,-1.62 12.37,-1.68 18.6,-1.45 5.22,0.24 10.16,2.61 14.01,6.1 -0.9,2.22 -1.67,4.81 -4.07,5.83 -11.68,6.74 -25.64,7.75 -37.38,14.4 1.71,2.84 3.16,6.09 6.05,7.94 6.02,3.84 14.06,5.28 20.67,2.08 6.15,-2.71 11.27,-7.53 14.68,-13.29 1.18,-1.88 2.22,-3.86 3.6,-5.61 6.34,-2.45 13.5,-2.37 19.95,-0.35 -6.93,10.03 -14.24,19.93 -19.28,31.09 -0.99,1.93 -1.77,4.2 -3.65,5.46 -4.6,0.83 -9.28,1.31 -13.96,1.3 3.05,-7.16 7.64,-13.5 11.45,-20.26 -10.88,6.74 -23.84,11.03 -36.72,8.92 -5.07,-1.1 -10.05,-3.69 -13.07,-8.01 -2.18,-3.47 0.03,-8.01 2.92,-10.34 10.29,-7.26 23.18,-9.53 33.59,-16.52 -7.11,-2.83 -14.94,-2.26 -22.42,-2.9 1.55,-1.59 3,-3.39 5.03,-4.39 z"
     fill="#828282" id="path28"/>
  <path
     d="m 326.99062,157.88906 c -3.53952,0.0146 -7.06062,1.56407 -10.39062,2.65156 -1.16,4.98 -3.44,10 -2.4,15.2 0.89,3.09 2.58938,6.08876 5.20938,8.01876 1.83,0.38 3.71124,0.36124 5.58124,0.48124 1.47,-2.88 2.79876,-5.84124 4.16876,-8.78124 1.83,3.44 3.57031,6.92124 5.17031,10.48124 -3.41,0.61 -6.86969,0.49 -10.27969,0.05 -0.47,1.25 -0.95062,2.48876 -1.34062,3.76876 -1.02,2.59 1.02,5.21 2.65,7.05 4.06,1.67 8.72031,-0.03 12.32031,-2.1 2.87,-3.13 3.68031,-7.68876 4.27031,-11.76876 -0.54,-5.01 -3.09062,-9.51062 -4.64062,-14.24062 -1.48,-3.78 -2.65969,-8.50062 -6.77969,-10.24062 -1.17751,-0.41 -2.35922,-0.57516 -3.53907,-0.57032 z m -6.43124,7.89063 c 1.92,0.35 3.84,0.74969 5.75,1.17969 -0.4,2.82 -0.97,5.61124 -1.6,8.38124 -1.71,-3.04 -3.18,-6.21093 -4.15,-9.56093 z"
     fill="#828282" id="path30"/>
  <path
     d="m 294.14,172.51 c 3.53,-1.88 7.43,-6.59 11.6,-3.3 4.44,4.07 4.89,10.65 7.48,15.86 -2.05,3.35 -4.22,6.62 -6.52,9.81 -2.49,-6.49 -3.6,-14.25 -9.87,-18.38 0.21,6.17 3.92,11.31 6.38,16.75 -2.85,1.85 -5.63,3.79 -8.4,5.76 -3.3,-6.57 -6.35,-13.27 -9.69,-19.83 2.54,-2.8 5.29,-5.58 9.02,-6.67 z"
     fill="#828282" id="path34"/>
  <path
     d="m 677.16,176.83 c 3.98,0.43 7.93,1.28 11.47,3.23 3.42,0.55 7.44,0.78 9.21,4.36 1.19,5.37 -2.72,9.96 -5,14.45 -2.22,5.33 -8.84,4.11 -13.43,5.22 2.92,-6.46 8.2,-12.2 7.68,-19.79 -5.25,3.56 -6,10.52 -8.64,15.87 -3.28,-0.93 -6.55,-1.91 -9.87,-2.66 2.51,-7.03 5.71,-13.79 8.58,-20.68 z"
     fill="#828282" id="path36"/>
  <path
     d="m 711.41,177.15 c 3.41,-1.51 8.26,0.69 7.67,4.86 0.73,5.4 -7.91,7.79 -10.17,3.01 -1.76,-2.72 -0.07,-6.35 2.5,-7.87 z"
     fill="#828282" id="path38"/>
  <path
     d="m 267.62,187.7 c 2.76,-2.26 5.57,-4.46 8.26,-6.8 4.33,6.23 8.55,12.55 12.83,18.82 -2.2,2.62 -4.45,5.2 -6.73,7.75 -1.07,-1.21 -2.12,-2.43 -3.16,-3.66 -1.07,2.27 -1.91,4.67 -3.32,6.77 -2.91,1.84 -7.11,2.24 -9.66,-0.45 -3.83,-4.17 -6.47,-9.27 -9.13,-14.23 2.33,-2.75 4.62,-5.54 7.03,-8.23 2.15,3.79 3.71,7.91 6.13,11.54 1.31,2.13 3.92,2.63 6.12,3.32 0.27,-6.16 -4.97,-10.34 -8.37,-14.83 z"
     fill="#828282" id="path40"/>
  <path
     d="m 238.43,191.81 c -0.26,-3.46 2.83,-6.89 6.45,-5.95 3.96,-0.02 4.92,4.63 3.99,7.74 -1.41,1.56 -3.24,2.64 -4.95,3.85 -2.14,-1.51 -4.94,-2.8 -5.49,-5.64 z"
     fill="#828282" id="path42"/>
  <path
     d="m 701.34,189.88 c 4.91,-0.02 9.76,0.9 14.66,1.18 -3.26,7.17 -6.17,14.49 -8.9,21.88 -3.55,-0.8 -7.08,-1.67 -10.49,-2.95 2.64,-4.76 5.15,-9.61 6.97,-14.76 -1.22,-0.79 -2.44,-1.57 -3.65,-2.35 0.47,-1 0.93,-2 1.41,-3 z"
     fill="#828282" id="path44"/>
  <path
     d="m 241.59,208.02 c 0.4,-5.98 6.74,-8.42 9.99,-12.72 3.95,6.92 6.78,14.41 10.71,21.34 -2.96,1.98 -5.95,3.93 -8.99,5.78 -2.04,-5.01 -4.04,-10.04 -6.35,-14.94 -1.79,0.2 -3.58,0.39 -5.36,0.54 z"
     fill="#828282" id="path46"/>
  <path
     d="m 721.37,201.39 c 2.7,-1.58 5.33,-3.29 8.01,-4.92 1.25,2.04 3.22,3.96 3.43,6.44 -0.88,4.99 -3.61,9.39 -5.09,14.21 3.97,-1.95 6.9,-5.2 8.91,-9.08 2.42,-0.3 6,-0.21 6.91,2.57 1.48,2.69 -0.85,5.46 -2.76,7.19 -2.65,2.41 -6.45,2.01 -9.74,2.38 -2.47,0.13 -4.58,1.54 -6.94,2.06 -2.66,-0.58 -5.09,-1.88 -7.63,-2.8 1.8,-5.96 5.8,-11.54 4.9,-18.05 z"
     fill="#828282" id="path48"/>
  <path
     d="m 221.72,209.74 c 3.49,-1.59 6.91,-3.31 10.3,-5.09 0.77,2.4 1.5,4.81 2.22,7.23 -3.73,1.48 -7.75,2.52 -10.86,5.2 5.03,0.22 8.89,-3.56 13.64,-4.3 3.78,-0.69 4.95,3.76 5.51,6.62 0.43,6.2 -5.1,10.61 -10.09,13.13 -2.83,1.75 -6.23,1.49 -9.4,1.57 -0.02,-1.58 -0.03,-3.15 -0.05,-4.72 4.42,-0.75 9,-2.08 11.93,-5.73 -4.58,1.16 -8.66,4.91 -13.57,4.23 -7.94,-2.71 -6.65,-15.16 0.37,-18.14 z"
     fill="#828282" id="path50"/>
  <path
     d="m 752.13125,217.09062 c -3.48072,-0.15298 -7.24687,0.78125 -9.39063,3.66876 -2.69,3.24 -6.08031,6.68093 -5.92031,11.21093 -0.29,3.31 2.71907,5.47938 5.08907,7.20938 4,2.53 8.77062,0.96031 12.74062,-0.77969 -3.36,-1.28 -6.91031,-2.74969 -8.27031,-6.37969 3.62,1.11 7.20062,3.65938 11.14062,2.80938 2.91,-2.12 6.52969,-5.84938 4.47969,-9.70938 -2.03,-3.26 -4.97,-6.15 -8.4,-7.9 -0.48,-0.0638 -0.9715,-0.10783 -1.46875,-0.12969 z m 0.70937,6.27969 c 0.37,2.34 0.13876,4.68938 -0.48124,6.95938 -1.33,-0.59 -2.63969,-1.18031 -3.92969,-1.77031 1.4,-1.79 2.86093,-3.51907 4.41093,-5.18907 z"
     fill="#828282" id="path52"/>
  <path
     d="m 187.33,217.64 c 2.98,4.21 5.95,8.43 9.05,12.56 1.1,-2.08 1.26,-5.33 4.05,-5.85 3.45,-0.56 8.02,-1.42 10.4,1.86 3.33,3.8 5.32,8.54 8.19,12.68 -1.35,3.59 -2.58,7.23 -4.16,10.73 -4.1,-6.77 -7.86,-14.35 -15.13,-18.27 0.43,6.27 5.93,10.32 8.82,15.52 -2.41,2.52 -4.87,4.99 -7.36,7.43 -6.47,-9.67 -13.33,-19.08 -20.4,-28.33 2.08,-2.85 4.25,-5.64 6.54,-8.33 z"
     fill="#828282" id="path54"/>
  <path
     d="m 757.65,243.72 c 3.31,-5.18 7.8,-9.46 11.61,-14.27 2.43,2.54 6.32,4.62 5.61,8.7 3.76,-1.88 7.12,0.74 9.56,3.46 -2.78,2.46 -5.71,4.74 -8.78,6.83 -0.81,-1.66 -1.61,-3.33 -2.39,-4.98 -1.76,0.78 -3.58,1.49 -5.08,2.7 -0.15,2.16 0.45,4.29 0.48,6.46 -1.75,1.12 -3.67,2.05 -5.7,2.51 -4.78,-1.23 -7.8,-6.93 -5.31,-11.41 z"
     fill="#828282" id="path58"/>
  <path
     d="m 178.64062,242.09062 c -2.63,2.62 -5.63124,4.83969 -8.28124,7.42969 -0.79,3.43 -0.58,7.01 -0.4,10.5 0.07,3.86 2.82031,7.43938 6.37031,8.80938 4.12,0.68 8.68969,0.15062 12.12969,-2.35938 3.14,-1.83 3.05062,-5.89031 4.09062,-8.97031 1.66,-5.1 -1.47031,-10.71062 -6.07031,-12.99062 -2.62,-0.79 -5.29907,-1.36876 -7.83907,-2.41876 z m 0.3172,9.84063 c 0.55515,-0.0144 1.11436,0.0459 1.67187,0.19844 3.08,1.26 4.94093,4.21093 6.86093,6.76093 -2.07,0.48 -4.14062,1.24 -6.29062,1.1 -3.13,-0.98 -5.02938,-3.88093 -6.90938,-6.36093 1.38,-0.93751 3.00172,-1.65531 4.6672,-1.69844 z"
     fill="#828282" id="path60"/>
  <path
     d="m 306.99531,241.88125 c -28.73387,-0.0106 -57.45937,8.85469 -81.43593,24.65937 -29.81,19.71 -52.20969,49.42969 -65.62969,82.32969 -7.69,17.66 -12.06969,36.53938 -15.57969,55.40938 -1.75,11.52 -3.42969,23.10969 -3.42969,34.77969 -0.16,6.01 -1.33031,11.98093 -0.87031,18.01093 0.96,9.65 0.91031,19.40031 2.97031,28.92031 -2.56,2.77 -4.70093,5.92 -7.56093,8.4 -7.23,6.55 -14.26,13.30907 -20.75,20.58907 5.09,4.77 9.68093,10.05969 14.36093,15.22969 3.93,-5.32 9.28031,-9.24907 14.32031,-13.43907 1.55,1.96 3.13938,3.87969 4.70938,5.82969 -5.13,4.73 -10.06,9.68969 -14.2,15.32969 -5.99,7.97 -14.79062,13.31 -20.44062,21.55 -1.56,5.48 -1.01,11.22062 -1.1,16.84062 4.93,-0.64 9.64093,-2.27031 14.41093,-3.62031 2.35,-0.68 4.03031,-2.56938 5.72031,-4.20938 5.59,-5.74 11.99907,-10.66062 17.18907,-16.79062 3.39,-4.37 7.30031,-8.28969 11.37031,-12.02969 1.73,3.13 3.38938,6.29969 5.10938,9.42969 -2.46,3.04 -4.50907,7.02062 -8.83907,7.49062 0.38,2.14 0.72907,4.28969 1.13907,6.42969 -1.7,1.13 -3.38907,2.25969 -5.08907,3.37969 -0.34,4.11 -1.89093,7.95969 -2.71093,11.97969 3.77,-1.47 7.67124,-2.56907 11.73124,-2.83907 0.47,-1.81 0.90938,-3.62 1.40938,-5.4 2.37,0.91 4.78938,1.67938 7.25938,2.30938 -3.66,3.56 -6.75,7.67938 -10.55,11.10938 -6.42,7.55 -14.15938,13.84 -20.45938,21.5 -4.51,4.43 -8.63062,9.21062 -13.09062,13.69062 2.6,5.55 3.12124,12.21062 7.33124,16.89062 12.84,8.6 26.22876,16.35969 39.06876,24.97969 2.65,1.66 6.54062,3.83031 9.14062,0.87031 7.23,-7.12 13.39938,-15.24093 20.55938,-22.46093 4.45,-5.37 10.28062,-9.36 14.54062,-14.9 2.57,2.12 5.11938,4.31093 7.10938,7.01093 -6,5.88 -11.90938,11.84969 -17.30938,18.27969 -4.26,4.05 -7.49,9.10907 -12.05,12.83907 -1.66,0.31 -3.37062,0.17 -5.04062,0.4 -2.28,1.13 -3.94876,3.17093 -5.66876,5.01093 -0.91,1.2 -2.60062,2.45 -1.54062,4.1 2.01,4.28 4.16062,8.52031 6.54062,12.62031 3.91,5.12 6.15,11.22938 9.5,16.70938 -6.17,7.8 -13.12093,14.94031 -19.61093,22.47031 -1.44,1.56 -1.5,3.77 -1.9,5.75 C 185.74969,724.05031 191.19,715.84 198.8,710 c 3.2,-0.88 6.51062,-1.55969 9.14062,-3.77969 6.71,5.09 14.02938,9.35969 21.30938,13.57969 3.56,-4.31 8.26062,-7.54062 11.19062,-12.39062 6.52,4.04 12.53969,8.83093 18.57969,13.56093 1.39,1.03 2.96938,1.76938 4.50938,2.55938 2.58,-4.67 7.17,-7.55938 10.25,-11.80938 4.65,-5.9 10.38969,-10.81031 15.12969,-16.62031 2.48,1.78 5.36,2.85062 8.45,2.49062 -4.12,4.79 -8.46969,9.38 -12.82969,13.95 -8.46,10.47 -18.36969,19.62907 -27.22969,29.73907 -10.28,11.38 -21.3,22.07 -31.3,33.7 -5.04,5.66 -11.22938,10.27969 -15.20938,16.82969 2.29,4.49 4.44907,9.0503 7.13907,13.3203 4.05,3.48 9.08093,5.62064 13.41093,8.74064 2.62,-4.15 7.66938,-3.95096 11.85938,-5.06096 1.57,-0.42 3.10969,0.31096 4.62969,0.61096 0.79,-0.83 1.57031,-1.66032 2.37031,-2.47032 1.14,0.89 2.26938,1.80064 3.40938,2.69064 3.86,-3.89 9.98124,-4.07096 14.83124,-2.11096 2.28,1.07 4.15907,-1.08 6.13907,-1.85 1.97,-0.38 3.98093,0.2 5.96093,-0.0496 3.24,-2.76 5.87,-6.12999 8.8,-9.19999 8.14,-9.52 16.90969,-18.44907 25.77969,-27.28907 8.71,-10.8 19.00938,-20.11093 28.45938,-30.21093 0.73,0.76 1.46,1.54031 2.2,2.32031 -5.56,4.6 -10.36907,10.02938 -15.08907,15.45938 -4.59,6.04 -10.77,10.63093 -15.25,16.76093 -2.95,3.43 -6.97031,5.85 -9.52031,9.65 1.32,4.02 4.37031,7.20031 5.87031,11.17031 1.42,4.13 6.00969,5.26965 9.02969,7.9297 9.98,8.42 20.09938,16.67968 30.45938,24.62968 1.69,1.71 4.73031,1.40064 6.22031,-0.40936 2.32,-2.44 4.54969,-4.97 6.97969,-7.3 3.63,2.97 7.59093,5.53 11.06093,8.7 -8.5,8.45 -15.89093,17.89872 -24.51093,26.21872 -6.25,6.13 -11.70031,13.11128 -18.67031,18.48128 4.6,5.07 8.53093,10.87 14.06093,15 4.64,2.99 9.17907,6.26936 14.38907,8.20936 10.51,-12.77 23.78093,-23.00064 33.81093,-36.19064 7.65,-8.01 16.04,-15.31936 23.3,-23.70936 5.41,-6.28 11.76031,-11.68032 16.92031,-18.17032 3.92,4.53 8.04,9.15968 13.1,12.42968 5.69,-5.13 11.07938,-10.64 15.85938,-16.65 4.26,6.4 7.05,13.6 10.15,20.6 5.32,-13.21 12.93031,-25.33936 21.37031,-36.75936 31.63,-42.27 70.48969,-78.71031 112.47969,-110.52031 9.79,-7.33 20.21938,-13.73031 30.20938,-20.77031 25.56,-16.67 51.95,-32.16907 76.25,-50.68907 12.87,-8.92 24.52031,-19.43969 35.97031,-30.07969 6.4,-6.64 12.54,-13.55093 18.3,-20.76093 21.78,-27.07 35.67095,-60.73969 37.76095,-95.52969 1.17,-9.97 0.60968,-20.01969 0.67968,-30.02969 -1.08,-12.86 -1.92096,-25.79062 -4.36096,-38.49062 -3.5099,-22.07 -10.50874,-43.57031 -20.46874,-63.57031 -8.64,-17.67 -20.13031,-34.00938 -34.27031,-47.70938 -25.7,-26.07 -61.24031,-42.21969 -97.82031,-44.17969 -7.04,-0.11 -14.07,-0.0506 -21.1,0.0594 -7.85,0.5 -15.56031,2.24031 -23.27031,3.72031 -22.72,4.9 -43.86969,15.61969 -62.37969,29.52969 -23.34,17.75 -42.66,40.64 -56.7,66.35 -5.09,8.26 -8.54062,17.36 -12.89062,26 -1.5,-2.67 -2.89907,-5.38937 -4.08907,-8.20937 -14.71,-32.02 -35.39,-61.87032 -63.15,-83.92032 -21.63,-17.7 -47.79062,-30.01968 -75.44062,-34.47968 -7.94282,-1.43719 -15.98889,-2.13608 -24.03438,-2.13907 z m 166.50156,151.11719 c 18.52626,0.004 37.05282,0.0262 55.58282,0.0313 5.46,-0.19 11.31062,4.02062 10.99062,9.89062 -0.21,22.02 0.0903,44.04969 -0.0797,66.07969 -0.15,6.64 0.43938,13.24969 0.60938,19.87969 25.45,0.75 50.93,0.0206 76.4,0.34062 4.57,0.18 9.38,-0.63093 13.75,1.08907 3.97,1.82 6.51937,6.22125 6.25937,10.58125 -0.02,35.74 0.0113,71.48968 -0.0187,107.22968 0.34,5.68 -4.02,11.63907 -9.95,11.78907 -28.92,0.34 -57.86031,-0.22875 -86.77031,0.28125 -0.85,12.59 0.37031,25.19906 -0.22969,37.78906 -0.14,16.35 0.0497,32.7 -0.0703,49.05 0.07,5.1 -4.85062,9.45969 -9.89062,8.97969 -37.71,-0.04 -75.42031,0.0203 -113.12031,-0.0297 -3.88,0.11 -7.25907,-2.72907 -8.83907,-6.08907 -1.48,-3.08 -1.09062,-6.57031 -1.14062,-9.87031 0.05,-26.67 3.1e-4,-53.35031 0.0203,-80.02031 -28.68,-0.03 -57.36062,0.0503 -86.04062,-0.0297 -6.98,-0.14 -11.09938,-7.57969 -10.75938,-13.92969 0.01,-33.7 0.0897,-67.41093 -0.0203,-101.11093 0.01,-4.48 0.45031,-9.57 4.02031,-12.75 1.98,-2.16 4.97938,-2.87032 7.80938,-2.97032 28.31,-0.1 56.63,0.0403 84.95,-0.0797 0.1,-28.4 0,-56.80937 0.05,-85.20937 -0.34,-5.82 5.05093,-11.27063 10.91093,-10.84063 18.525,-0.07 37.05032,-0.085 55.57656,-0.0812 z M 175.5,562.62969 c 0.75,1.11 1.49062,2.23093 2.24062,3.36093 -1.67,1.53 -3.33093,3.04938 -5.06093,4.50938 0.3,-2.83 1.38031,-5.45031 2.82031,-7.87031 z m 93.49687,109.50937 c 1.9741,0.15956 -1.26249,4.11876 -2.70625,3.48125 -0.36,-1.45 1.04907,-2.84093 2.23907,-3.46093 0.18,-0.0256 0.33558,-0.031 0.46718,-0.0203 z m -4.65625,4.55156 c -0.9,3.23 -3.00093,5.88938 -5.76093,7.75938 1.33,-2.98 3.19093,-5.71938 5.76093,-7.75938 z m -5.92031,7.15938 c -4.86,8.56 -12.98031,14.46969 -19.22031,21.92969 0.95,-1.85 2.06938,-3.6 3.50938,-5.1 5.35,-5.5 9.66093,-12.02969 15.71093,-16.82969 z m 39.14531,9.82344 c 1.00266,-8e-4 2.05376,1.13125 1.24376,2.10625 -1,1.19 -3.20938,-0.42969 -2.15938,-1.67969 0.2525,-0.3 0.58141,-0.42625 0.91562,-0.42656 z"
     fill="#828282" id="path62"/>
  <path
     d="m 783.09,249 c 3.27,-1.81 7.1,-0.65 10.4,0.48 4.02,2.85 7.12,6.8 10.57,10.29 -2.1,1.21 -4.21,2.4 -6.32,3.59 -2.53,-3.12 -4.94,-6.4 -8.17,-8.83 0.76,5.22 6.13,7.47 8.4,11.79 1.82,5.12 -4.51,8.71 -8.85,8.65 -7.66,-1.26 -13.66,-7.5 -16.61,-14.42 1.5,-0.62 3.02,-1.24 4.54,-1.86 2.85,3.83 5.49,8.33 10.36,9.81 -2.64,-3.67 -6.65,-6.34 -8.49,-10.57 -1.73,-3.46 0.91,-7.54 4.17,-8.93 z"
     fill="#828282" id="path64"/>
  <path
     d="m 819.43,260.27 c 4.31,-1.71 8.62,4.36 5.95,8 -1.58,1.84 -4.31,3.36 -6.7,2.14 -4.68,-1.38 -4.07,-9.32 0.75,-10.14 z"
     fill="#828282" id="path68"/>
  <path
     d="m 160.4875,264.83594 c -4.70832,-0.24514 -8.56468,4.08624 -12.46719,6.34375 0.02,3.5 -0.35062,7.05093 0.30938,10.51093 1.3,4.8 5.6,7.93969 9.5,10.62969 1.77,1.58 4.19031,0.42969 5.77031,-0.82031 0.84,-4.25 0.26,-8.62969 0.45,-12.92969 2.22,2.12 4.30031,4.36969 6.37031,6.62969 1.8,-2.89 3.48,-5.85969 4.95,-8.92969 -4.35,-3.57 -7.76093,-8.39969 -12.81093,-11.02969 -0.71,-0.24124 -1.39926,-0.36966 -2.07188,-0.40468 z m -1.85781,9.05468 c 0.8,2.53 1.41969,5.10876 1.92969,7.71876 -2.4,-1.52 -4.66938,-3.21876 -6.80938,-5.06876 1.61,-0.92 3.23969,-1.8 4.87969,-2.65 z"
     fill="#828282" id="path70"/>
  <path
     d="m 804.1,270.09 c 0.93,-0.73 1.86,-1.46 2.81,-2.18 3.91,2.59 8.18,4.54 12.22,6.93 -5.75,5.17 -11.34,10.55 -16.23,16.56 -2.84,-2.08 -5.55,-4.31 -8.36,-6.43 3.82,-3.79 7.86,-7.36 11.76,-11.06 -0.73,-1.28 -1.47,-2.55 -2.2,-3.82 z"
     fill="#828282" id="path72"/>
  <path
     d="m 131.36,270.19 c 0.34,-0.03 1.02,-0.07 1.36,-0.09 2.2,4.76 3.18,9.99 4.04,15.13 1.34,9.87 -1.61,19.55 -3.13,29.21 6.84,-1.22 13.43,-3.52 19.88,-6.06 -1.42,-1.32 -2.95,-2.54 -4.27,-3.96 -0.57,-3.92 0.89,-7.83 1.39,-11.71 2.92,2.04 6.15,3.81 8.52,6.52 0.64,6.75 0.41,14.38 -4,19.93 -5.55,5.15 -13.51,5.59 -20.66,6.27 -0.26,8.85 -2.18,18.75 -9.85,24.25 -5.83,4.39 -13.6,2.14 -19.66,-0.54 0.02,-2.73 0.02,-5.46 0.02,-8.18 4.98,0 10.22,1.04 14.94,-1.05 3.97,-1.73 7.27,-4.81 9.69,-8.35 1.37,-1.87 0.45,-4.19 0.21,-6.25 -3.5,-0.03 -7,0.26 -10.49,0.48 -0.34,-2.29 -0.69,-4.59 -1.05,-6.87 2.77,-0.89 5.51,-1.89 8.14,-3.14 -3.41,-5.43 -7.48,-11.18 -13.78,-13.41 -1.07,2.88 -2.05,5.81 -2.98,8.74 -0.78,0.04 -2.34,0.12 -3.13,0.16 0.71,-5.87 1.42,-11.82 3.26,-17.46 0.64,-2.16 2.12,-4.17 4.35,-4.85 3.98,0.3 7.73,2.65 9.92,5.98 2.97,4.16 4.27,9.17 6.58,13.67 1.31,-7.72 0.33,-15.53 -1.23,-23.13 -1.22,-5.17 0.29,-10.4 1.93,-15.29 z"
     fill="#828282" id="path74"/>
  <path
     d="m 819.92,284.59 c 3.03,-0.76 5.85,-2.15 8.52,-3.77 1.79,1.69 3.57,3.41 5.34,5.14 -1.02,2.88 -0.16,5.69 1.37,8.2 -1.54,0.84 -3.02,1.81 -4.69,2.36 -1.59,-0.86 -3.03,-1.95 -4.52,-2.93 -1.69,1.67 -3.63,3.15 -4.91,5.16 -0.5,1.69 -0.25,3.49 -0.28,5.23 -3.17,0.12 -6.34,0.3 -9.51,0.31 -0.45,-3.11 -1.95,-6.41 -0.46,-9.46 1.56,-4.67 7.93,-5.31 9.14,-10.24 z"
     fill="#828282" id="path78"/>
  <path
     d="m 821.83,310.98 c 5.11,-4.2 10.89,-7.51 16.32,-11.27 2.25,2.92 4.7,5.69 7.23,8.38 -3.33,1.94 -6.68,3.87 -9.88,6.03 4.11,-0.16 8.04,-1.47 12.02,-2.39 1.36,2.96 2.78,5.9 4.01,8.93 -5.64,2.64 -11.32,5.21 -16.86,8.04 -2.55,1.26 -5.1,2.61 -7.89,3.19 -4.13,0.53 -8.19,-0.72 -12.23,-1.31 -1.53,-3.78 -3,-7.64 -3.51,-11.7 -0.37,-2.43 1.6,-4.4 3.33,-5.79 1.78,-0.07 3.52,0.41 5.27,0.72 0.4,3.64 1.46,7.15 2.75,10.57 3.76,-2.23 7.41,-4.64 11.03,-7.08 -3.88,-0.4 -7.75,-1.05 -11.65,-1.09 -0.23,-1.68 -1.64,-3.92 0.06,-5.23 z"
     fill="#828282" id="path80"/>
  <path
     d="m 460.56,445.55 c 3.09,-3.5 7.79,-5.14 12.35,-5.42 4.49,0.57 8.91,2.58 11.94,6.03 4.73,4.77 5.18,12.23 3.84,18.48 -1.13,4.69 -4.85,7.91 -8.27,11 -0.6,2.04 -0.37,4.21 -0.44,6.31 0.04,5.88 -0.94,11.71 -0.98,17.59 -4.54,1.37 -8.76,3.54 -12.93,5.74 -0.25,-5.08 -0.7,-10.14 -1,-15.21 -0.28,-4.55 0.3,-9.16 -0.45,-13.67 -2.53,-3.45 -6.46,-5.94 -7.78,-10.21 -2.17,-6.84 -1.55,-15.31 3.72,-20.64 z"
     fill="#828282" id="path84"/>
  <path
     d="m 822.76,496.93 c 0.9,-1.78 1.82,-3.54 2.83,-5.26 1.07,1.23 2.25,2.39 3.18,3.77 0.34,2.04 0.11,4.12 0.04,6.18 2.29,0.86 4.48,2.43 7.02,2.36 1.55,-0.68 2.86,-1.79 4.26,-2.74 1.5,2.93 2.95,5.88 4.38,8.85 -2.59,2.54 -5.3,6.08 -9.31,5.88 -3.54,-1.04 -6.37,-3.64 -9.9,-4.69 -3.73,-0.96 -5.84,-4.51 -8.93,-6.53 1.03,-2.88 1.88,-5.82 2.76,-8.74 1.22,0.3 2.44,0.61 3.67,0.92 z"
     fill="#828282" id="path86"/>
  <path
     d="m 491.03,503.03 c 4.6,-3.57 9.76,-7.52 15.92,-7.11 4.27,0.2 9.31,2.06 10.83,6.45 0.97,3.59 0.45,7.61 -1.74,10.67 -3.57,5.59 -10.72,7.74 -17.06,7.05 -6.15,-0.07 -9.6,-6.21 -15.2,-7.88 -4.33,-2.59 -8.56,1.22 -11.73,3.89 -2.59,2.01 -4.02,5.04 -4.28,8.28 3.3,-3.75 6.06,-8.41 11.12,-10 -1.25,9.68 -0.85,19.45 -0.87,29.18 5.4,0.69 9.08,5.23 12.12,9.33 4.08,5.36 5.88,12.2 5.75,18.87 -0.76,8.42 -6.79,15.12 -13.61,19.54 -5.81,3.73 -11.21,8.59 -13.77,15.16 -1.17,3.31 -0.35,6.88 0.74,10.1 0.35,-3.12 0.12,-6.29 0.78,-9.35 1.1,-3.13 3.35,-5.68 5.66,-7.99 0.96,8.3 -1.29,16.55 -0.62,24.86 1.01,8.82 -0.8,17.66 0.24,26.48 0.91,-1.91 1.92,-3.79 2.39,-5.86 0.29,-2.8 -1.03,-5.43 -1.12,-8.21 -0.13,-3.15 0.01,-6.32 0.24,-9.46 5.5,4.23 9.5,10.88 9.27,17.97 0.17,4.47 -1.82,8.98 -5.4,11.71 -4.69,3.58 -9.39,7.74 -15.5,8.42 1.84,-3.45 6.86,-5.75 5.81,-10.22 -0.23,-12.73 -1.17,-25.43 -1.46,-38.16 -0.36,4.32 -0.43,8.66 -0.95,12.97 -4.94,-4.02 -7.5,-10.15 -9.39,-16.06 -2.08,-10.14 2.98,-21.3 11.85,-26.62 5.94,-3.58 10.77,-8.9 14.01,-15.01 1.3,-2.27 1.24,-5.09 0.47,-7.52 -1.7,-4.87 -4.75,-9.11 -7.89,-13.15 -1.31,9.11 -0.18,18.34 -0.77,27.49 -0.6,4.12 -4.86,5.93 -8,7.87 -1.68,-9.83 -0.46,-19.83 -1.01,-29.73 -0.39,-4.08 1.02,-9.2 -2.62,-12.16 -5.02,-4.89 -8.08,-11.8 -7.94,-18.83 0.1,-7.6 2.63,-16.12 9.77,-19.96 7.2,-3.82 16.06,-6.16 23.96,-3.01 z"
     fill="#828282" id="path88"/>
  <path
     d="m 813.88,516.81 c 1.35,-1.45 3.25,-2.21 4.94,-3.21 5.11,2.55 9.47,6.27 14.04,9.64 0.22,4.33 0.98,8.64 0.82,12.99 -5.5,-4.11 -10.45,-9.55 -17.58,-10.67 -0.02,0.81 -0.08,2.44 -0.11,3.25 4.68,2.92 9.42,5.74 14.21,8.49 -1.13,3.4 -2.18,6.83 -3.2,10.27 -6.45,-3.51 -12.68,-7.41 -19.18,-10.81 0.12,-3.61 0.3,-7.43 2.37,-10.53 2.06,-2.81 1.64,-6.63 3.69,-9.42 z"
     fill="#828282" id="path90"/>
  <path
     d="m 806.46872,539.775 c -0.66896,-0.026 -1.36184,0.0772 -2.07808,0.34531 -2.88,1.9 -4.72064,4.96031 -6.34064,7.92031 -2.12,3.56 -0.66,7.86938 0.35,11.55938 4.05,3.57 8.76,8.03 14.55,7.75 4.05,0.13 5.83,-4.29969 7,-7.47969 1.69,-4.6 -0.28032,-9.48969 -3.22032,-13.07969 -0.42,2.27 -0.65032,4.56876 -1.17032,6.81876 -1.02,1.17 -2.31,2.03062 -3.5,2.99062 0.79,-3.97 2.74128,-8.01938 1.68128,-12.10938 -1.9256,-2.06375 -4.37296,-4.60304 -7.27192,-4.71562 z m -0.52344,10.45 c 1.38384,-0.0654 2.80944,0.27969 4.1844,0.55469 L 807.7,555.34062 c -1.56,-1.33 -3.26968,-2.58 -4.17968,-4.45 0.78,-0.43875 1.59472,-0.62642 2.42496,-0.66562 z"
     fill="#828282" id="path92"/>
  <path
     d="m 781.65,552.55938 c -1.44,3.37 -3.17,6.67 -3.85,10.3 2.23,2.74 5.29062,4.65093 7.99062,6.91093 -4.33,4.4 -3.39062,11.21031 -0.84062,16.27031 2.81,4.72 7.93969,7.21969 12.27969,10.27969 1.55,-1.15 3.07999,-2.32 4.59999,-3.5 -1.1,-4.28 -2.1603,-8.56062 -3.0203,-12.89062 2.61998,1.71 5.27126,3.39093 7.93126,5.06093 1.43,-3.31 2.77,-6.66062 4.15,-9.99062 C 800.47064,568.45 790.8,560.75938 781.65,552.55938 Z m 10.45938,22.07031 c 1.32,3 2.69093,5.98969 3.96093,9.02969 -2.87,-1.71 -5.55969,-3.67938 -8.07969,-5.85938 1.37,-1.07 2.73876,-2.13031 4.11876,-3.17031 z"
     fill="#828282" id="path96"/>
  <path
     d="m 770.61,596.18 c 2.09,-3.21 4.04,-6.5 6.1,-9.72 5.44,5.26 11.24,10.13 17.2,14.78 -1.33,3.46 -2.89,6.82 -4.5,10.16 -1.1,-0.73 -2.18,-1.45 -3.25,-2.17 -0.27,3.03 0.23,6.52 -1.84,9.03 -1.75,2.5 -5.32,2.2 -7.9,1.51 -4.95,-2.69 -8.85,-6.88 -12.82,-10.78 1.14,-3.76 2.52,-7.43 3.84,-11.12 2.65,2.6 5.05,5.43 7.49,8.23 1.76,2.3 4.81,2.61 7.42,3.29 -0.14,-6.72 -7.07,-9.73 -11.74,-13.21 z"
     fill="#828282" id="path102"/>
  <path
     d="m 759.68,610.72 c 1.16,1.34 2.42,2.64 3.31,4.21 -0.41,1.8 -1.19,3.49 -1.65,5.28 0.8,1.87 2.43,3.3 4.1,4.42 2.13,1.4 4.65,0.14 6.89,-0.27 0.9,2.81 1.9,5.62 2.22,8.57 -1.63,2.96 -5.33,3.79 -8.43,4.06 -4.11,-1.02 -6.39,-5.1 -9.73,-7.39 -3.43,-2.01 -5.37,-5.58 -7.42,-8.83 0.83,-2.79 2.67,-5.11 4.1,-7.6 1.13,0.56 2.26,1.14 3.41,1.72 1.05,-1.4 2.11,-2.8 3.2,-4.17 z"
     fill="#828282" id="path104"/>
  <path
     d="m 824.22,616.13 c 2.84,-2.69 7.24,-1.55 9.97,0.71 3.09,2.53 6.57,4.68 9.26,7.66 0.87,3.97 0.54,8.08 0.4,12.12 -5.96,-4.33 -11.42,-10.28 -19.24,-10.88 2.91,6.32 10.49,7.85 15.41,12.21 -1.59,3.09 -2.97,6.28 -4.38,9.47 -6.42,-3.69 -12.66,-7.7 -19.1,-11.35 0.49,-3.56 1.18,-7.08 1.8,-10.61 1.16,0.03 2.34,0.08 3.52,0.13 0.26,-3.22 -0.82,-7.36 2.36,-9.46 z"
     fill="#828282" id="path106"/>
  <path
     d="m 729.5,628.53 c 1.23,-2.66 3.56,-6.12 6.98,-5.05 4.62,0.61 8.18,4.04 10.08,8.13 -4.55,0.1 -9.6,0.74 -12.43,4.78 -1.01,2.78 2.05,4.51 4.08,5.67 5.39,-0.54 8.13,-6.29 12.96,-8.08 5.7,-0.68 7.73,5.82 8.57,10.26 1.08,10.19 0.61,21.07 -4.21,30.33 -4.46,6.53 -13.39,6.91 -20.54,7.5 -3.44,0.72 -5.62,-2.06 -7.7,-4.27 7.59,-6.25 17.54,-8.17 26.23,-12.3 2.45,-3.83 3.36,-8.78 2.27,-13.21 -0.35,-1.73 -1.93,-2.64 -3.54,-2.88 -3.72,1.99 -6.62,6.04 -11.29,5.75 -4.41,0.57 -8,-2.74 -9.46,-6.62 -2.51,-6.24 -4.71,-13.47 -2,-20.01 z"
     fill="#828282" id="path108"/>
  <path
     d="m 810.17032,641.12969 c -2.07,3.87 -5.34,7.05093 -7,11.11093 0.0304,5.61 1.30904,11.93876 5.63904,15.86876 5.77,4.62 13.60064,0.09 17.44064,-4.9 2.25,-6.22 2.35032,-14.59907 -3.37968,-19.08907 -3.24,-3.7 -8.41,-2.38062 -12.7,-2.99062 z m 3.4984,10.04062 c 0.56456,-0.0164 1.13064,0.085 1.69064,0.35 2.85,0.96 4.91,3.26031 7,5.32031 -2.87,1.31 -6.35968,3.52 -9.37968,1.3 -1.64,-1.26 -4.38968,-2.43062 -4.02968,-4.89062 1.35752,-0.9225 3.02512,-2.03047 4.71872,-2.07969 z"
     fill="#828282" id="path110"/>
  <path
     d="m 783.42,659.27 c 2.25,-0.93 4.87,0.4 6.39,2.09 1.01,2.82 0.92,6.86 -1.74,8.69 -3.85,2.72 -9.83,-1.93 -8.34,-6.34 0.32,-2.04 1.88,-3.6 3.69,-4.44 z"
     fill="#828282" id="path114"/>
  <path
     d="m 471.56,668.52 c -0.34,-2.11 0.77,-3.97 1.97,-5.58 1.25,8.44 -0.46,16.94 -1.16,25.36 -0.63,-6.58 -0.15,-13.21 -0.81,-19.78 z"
     fill="#828282" id="path116"/>
  <path
     d="m 794.29,664.03 c 6.35,5.3 13.44,9.59 20.16,14.4 -1.27,3.55 -2.99,6.91 -5.03,10.08 -4.16,-3.59 -8.65,-6.75 -13.11,-9.94 -1.19,1 -2.37,2.02 -3.54,3.04 -0.89,-0.95 -1.76,-1.88 -2.64,-2.81 1.89,-4.77 3.11,-9.76 4.16,-14.77 z"
     fill="#828282" id="path118"/>
  <path
     d="m 781.96,682.53 c 1.19,-1.4 2.34,-2.83 3.54,-4.23 1.2,1.27 2.56,2.44 3.47,3.97 -0.04,2.02 -1.03,3.85 -1.65,5.73 2.61,1.56 4.98,4.75 8.36,3.78 1.33,-0.23 2.65,-0.54 4,-0.8 0.85,2.97 1.86,5.9 2.68,8.89 -3.15,1.84 -6.72,4.75 -10.59,3.46 -3.87,-0.95 -5.9,-4.92 -9.57,-6.22 -3.98,-1.27 -5.03,-5.96 -7.99,-8.53 1.42,-2.5 2.78,-5.02 4.07,-7.58 1.22,0.51 2.44,1.02 3.68,1.53 z"
     fill="#828282" id="path124"/>
  <path
     d="m 700.12031,683.09062 c -3.82,1.4 -7.26093,4.12 -9.71093,7.35 -0.74,2.73 -1.40938,5.55 -1.35938,8.4 1.62,3.76 4.41938,6.91907 7.10938,9.98907 1.44,1.31 2.78031,3.31062 4.97031,3.24062 3.16,0.4 6.05062,-1.58 8.04062,-3.85 3.08,-3.83 2.48969,-9.21969 1.02969,-13.57969 -1.71,3 -3.69969,6.04876 -7.27969,6.91876 1.81,-3.35 4.71031,-6.43938 4.92031,-10.40938 -1.01,-3.63 -3.46031,-8.02938 -7.72031,-8.05938 z m -4.34062,9.78907 c 1.84,0.16 3.7,0.34 5.55,0.55 0.24,0.66 0.71,1.96969 0.95,2.62969 -0.97,1.03 -1.91938,2.08062 -2.85938,3.14062 -1.25,-2.09 -2.48062,-4.19031 -3.64062,-6.32031 z"
     fill="#828282" id="path126"/>
  <path
     d="m 774,699.97969 c -4.68,1.44 -8.21,5.25031 -11.75,8.47031 -0.87,4.95 -0.27969,10.42031 2.67031,14.62031 2.76,3.68 7.00907,5.79907 10.88907,8.08907 1.45,-0.85 2.91124,-1.68 4.38124,-2.5 -0.06,-4.44 -0.24124,-8.86969 -0.58124,-13.27969 2.24,2 4.42031,4.09 6.67031,6.1 1.54,-3.27 2.94,-6.60907 4.35,-9.93907 -5.34,-4.03 -9.72969,-10.30093 -16.62969,-11.56093 z m -0.35,10.59062 c 0.8,2.68 1.51,5.38969 2.15,8.12969 -2.58,-1.71 -5.06031,-3.55062 -7.37031,-5.59062 1.72,-0.89 3.45031,-1.73907 5.22031,-2.53907 z"
     fill="#828282" id="path134"/>
  <path
     d="m 679.42,701.15 c 2.9,-1.41 6.25,-0.06 7.86,2.61 2.51,3.62 4.75,7.46 6.6,11.46 -0.18,4.36 -2.1,8.47 -3.68,12.49 -3.66,-6.26 -5.72,-15.1 -13.66,-17.23 1.15,6.57 7.24,10.59 9.57,16.52 -0.67,3.19 -4.18,5.26 -6.08,7.91 -4.71,-5.79 -9.15,-11.83 -13.08,-18.16 0.58,-3.32 2.72,-6.09 4.27,-9.02 1.14,0.36 2.28,0.73 3.43,1.11 1.17,-2.74 1.29,-6.86 4.77,-7.69 z"
     fill="#828282" id="path136"/>
  <path
     d="m 649.45,709.19 c 2.76,-1.29 6.59,0.15 7.32,3.25 1.01,2.73 -0.64,5.37 -1.74,7.79 -2.8,-0.26 -6.34,0.31 -7.91,-2.65 -0.49,-2.9 -0.44,-6.63 2.33,-8.39 z"
     fill="#828282" id="path138"/>
  <path
     d="m 742.41,710.03 c 3.71,-2.07 8.63,1.68 7.66,5.87 0.53,5.26 -7.47,7.18 -9.82,2.76 -2.51,-2.81 -1.02,-7.1 2.16,-8.63 z"
     fill="#828282" id="path140"/>
  <path
     d="m 659.52,717.97 c 1.78,0.03 2.44,1.92 3.37,3.14 3.5,5.84 7.59,11.28 11.47,16.86 -2.36,2.65 -4.62,5.4 -7.23,7.81 -2.92,-4.85 -5.88,-9.68 -9.12,-14.32 -1.51,0.67 -3.01,1.33 -4.51,1.98 -0.09,-1.81 -0.82,-3.86 0.42,-5.43 2.09,-3.22 3.79,-6.67 5.6,-10.04 z"
     fill="#828282" id="path144"/>
  <path
     d="m 747.05,730.12 c 2.14,-4.37 4.64,-8.56 6.7,-12.97 5.55,6.01 10.8,12.29 16.75,17.94 -2.09,3.23 -4.44,6.28 -7.01,9.15 -3.36,-4.64 -7.03,-9.03 -10.87,-13.27 -1.25,1.04 -2.48,2.1 -3.72,3.16 -0.67,-1.32 -1.43,-2.6 -1.85,-4.01 z"
     fill="#828282" id="path146"/>
  <path
     d="m 634.41,741.55 c 0.6,-5.57 5.66,-9.31 10.75,-10.55 3.12,-0.23 5.46,2.27 7.72,4.03 -1.7,2.62 -3.55,5.14 -5.32,7.71 -1.58,-0.3 -3.16,-0.6 -4.73,-0.85 1.8,2.55 2.89,8.08 6.98,6.91 3.1,-0.58 4.47,-3.66 6.16,-5.94 0.56,3.69 1.02,7.73 -0.83,11.17 -2.11,3.36 -6,5.93 -10.09,5.32 -3.88,-0.13 -5.86,-3.93 -7.66,-6.81 -1.94,-3.3 -4.47,-7 -2.98,-10.99 z"
     fill="#828282" id="path148"/>
  <path
     d="m 737.67,734.49 c 3.02,-1.54 6.14,0.36 8.8,1.73 -1.11,2.94 -2.46,5.79 -3.75,8.66 -1.75,-0.15 -3.49,-0.31 -5.22,-0.41 2.2,2.47 4.47,8.08 8.58,5.78 3.15,-1.06 3.97,-4.48 5.28,-7.12 1.39,3.96 2.82,8.68 0.29,12.52 -2.06,2.76 -4.81,6.09 -8.65,5.65 -5.58,-0.01 -9.28,-4.86 -12.46,-8.8 -2.07,-2.14 -1.67,-5.29 -1.48,-7.98 0.21,-4.86 4.58,-8.14 8.61,-10.03 z"
     fill="#828282" id="path150"/>
  <path
     d="m 616.4,735.19 c 2.91,-1.07 5.64,1.57 6.33,4.24 1.63,3.92 -3.03,9.19 -7.02,6.89 -4.6,-1.91 -4.35,-9.86 0.69,-11.13 z"
     fill="#828282" id="path152"/>
  <path
     d="m 606.35,742.47031 c -2.71,2.31 -5.24062,4.82938 -7.69062,7.40938 1.65,3.21 3.28124,6.43062 4.93124,9.64062 -1.45,0.91 -3.02031,1.66907 -4.27031,2.83907 -2.86,4.19 -2.65969,9.59031 -2.12969,14.42031 1.38,4.72 4.39,8.74031 7.25,12.67031 1.49,-0.46 3.07938,-0.73062 4.40938,-1.59062 1.68,-3.85 1.67062,-8.19876 2.54062,-12.26876 1.88,2.62 3.5,5.39969 5.05,8.22969 2.58,-2.34 5.05969,-4.8 7.57969,-7.2 -7.24,-10.65 -12.31031,-22.51 -17.67031,-34.15 z m 1.29062,24.25938 c 0.25,3.57 0.34907,7.16 0.0891,10.75 -1.97,-2.9 -3.54938,-6.02969 -5.05938,-9.17969 1.65,-0.54 3.30031,-1.07031 4.97031,-1.57031 z"
     fill="#828282" id="path154"/>
  <path
     d="m 625.81,744.35 c 4.42,7.13 8.79,14.3 12.88,21.63 -2.15,2.67 -4.67,5.02 -7.38,7.12 -2.69,-4.96 -5.07,-10.09 -8.16,-14.81 -1.79,0.6 -3.59,1.16 -5.41,1.65 0.07,-6.23 5.41,-10.39 8.07,-15.59 z"
     fill="#828282" id="path156"/>
  <path
     d="m 719.77969,753.77969 c -2.42,2.28 -4.99031,4.39093 -7.47031,6.61093 -2.68,2.4 -2.37,6.36907 -2.4,9.63907 -0.09,4.4 1.60093,9.16 5.36093,11.7 4.35,2.66 9.81938,0.88 13.85938,-1.55 3.95,-2.22 4.38,-7.24938 4.9,-11.25938 0.63,-4.99 -1.92,-10.13093 -6.25,-12.66093 -2.53,-1.23 -5.36,-1.56969 -8,-2.47969 z m -1.33125,9.92344 c 4.65948,0.15149 8.05469,3.72812 10.21094,7.63749 -2.27,0.76 -4.72907,2.4 -7.13907,1.25 -2.91,-1.12 -4.76031,-3.72 -6.32031,-6.25 0.57,-0.66 1.73,-1.96031 2.3,-2.62031 0.32187,-0.0213 0.63781,-0.0273 0.94844,-0.0172 z"
     fill="#828282" id="path158"/>
  <path
     d="m 690.63,777.64 c 3.71,-2.21 7.35,-4.54 11.17,-6.56 0.87,2.46 1.7,4.94 2.48,7.44 -3.67,1.68 -7.34,3.39 -10.77,5.52 5.9,1.34 9.73,-5 15.29,-5.04 4.87,1.83 4.92,8.27 3.71,12.51 -3.3,6.86 -10.7,11.77 -18.36,11.87 -0.09,-1.69 -0.16,-3.36 -0.22,-5.03 4.66,-1.6 9.66,-3.4 12.45,-7.76 -3.62,0.97 -6.53,3.39 -9.85,4.99 -2.38,0.74 -4.93,0.45 -7.38,0.56 -1.73,-2.74 -4.06,-5.61 -3.43,-9.08 0.66,-3.44 1.5,-7.67 4.91,-9.42 z"
     fill="#828282" id="path164"/>
  <path
     d="m 590.95,771.70938 c -3.9,0.09 -7.69031,1.15031 -11.02031,3.17031 -3.72,1.46 -4.24031,5.92969 -5.12031,9.32969 0.26,3.91 2.48124,7.37031 4.18124,10.82031 1.37,2.8 3.61969,5.59031 6.97969,5.82031 4.43,-0.48 8.75907,-3.55031 9.98907,-7.97031 0.88,-2.58 0.35031,-5.32 0.0703,-7.95 -2.03,2.83 -4.54938,5.69031 -8.40938,5.32031 2.26,-2.83 5.48906,-5.01 6.93906,-8.4 -0.35,-3.62 -1.94937,-6.96062 -3.60937,-10.14062 z m -8.04062,8.66093 c 1.97,0.9 3.86062,1.99031 5.69062,3.17031 l -1.87969,2.47969 -2.47969,0 c -0.46,-1.89 -0.93124,-3.77 -1.33124,-5.65 z"
     fill="#828282" id="path166"/>
  <path
     d="m 561.45,773.9 c 8.04,7.73 14.31,17.78 15.64,29.03 0.59,5.06 2.29,10.8 -0.76,15.42 -3.57,5.56 -7.88,11.37 -14.38,13.6 -3.7,1.51 -7.75,1.3 -11.65,1.19 -0.53,-1.58 -1.08,-3.13 -1.61,-4.68 10.14,-1.07 19.01,-7.02 25.74,-14.41 -4.62,-10.38 -10.58,-20.18 -17.95,-28.83 -2.39,5.16 -3.81,10.91 -3.39,16.62 0.63,5.19 1.84,10.31 3.6,15.24 -3.05,2.49 -6.17,4.9 -9.33,7.25 -3.17,-10.78 -7.21,-21.36 -13.17,-30.92 -2.16,5.22 -3.38,10.87 -3.21,16.55 0.15,6.64 -0.42,13.35 0.76,19.93 -2.79,2.18 -5.58,4.37 -8.4,6.52 -1.86,-6.67 -3.03,-13.58 -5.78,-19.98 -1.58,-3.21 -4.01,-6.1 -7.08,-7.97 -1.75,-0.5 -3.58,-0.5 -5.36,-0.69 -0.63,6.27 0.3,12.59 2.74,18.41 1.82,-0.23 3.64,-0.48 5.47,-0.71 -1.32,3.24 -1.54,9.25 -6.29,8.78 -2.6,0.19 -3.96,-2.61 -4.63,-4.69 -2.11,-9.96 -0.84,-20.35 2.08,-30.01 5.31,-2.14 11.48,-1.59 16.16,1.78 1.83,1.5 3.28,3.39 4.86,5.16 1.32,-6.37 2.48,-13.13 6.66,-18.35 1.86,-2.78 4.54,-4.81 7.19,-6.78 3.6,2.95 6.1,6.92 8.42,10.9 3.12,-7.07 7.61,-13.5 13.67,-18.36 z"
     fill="#828282" id="path168"/>
  <path
     d="m 666.7,791.7 c 3.63,-1.68 7.26,-3.37 10.92,-4.98 0.48,2.64 1.01,5.28 1.53,7.92 -3.88,1.18 -8.22,2.03 -10.89,5.4 4.79,-0.26 8.76,-3.08 13.17,-4.58 2.2,-0.97 4.2,1.26 5.33,2.93 0.99,3.67 1.23,8.02 -1.2,11.21 -4.18,5.82 -11.43,9.03 -18.54,8.61 -0.02,-1.63 -0.03,-3.23 -0.02,-4.83 4.91,-1.08 9.97,-2.77 13.37,-6.69 -5.3,1.31 -10.2,5.83 -15.96,4 -2.7,-0.63 -3.75,-3.52 -4.36,-5.91 -0.59,-5.06 1.76,-10.97 6.65,-13.08 z"
     fill="#828282" id="path172"/>
  <path
     d="m 640.81406,791.87344 c -0.2644,-0.002 -0.53593,0.0131 -0.81406,0.0469 -7.38,0.63 -13.70031,5.27908 -19.32031,9.73904 -2.63,1.7 -2.92907,4.84128 -3.23907,7.68128 4.55,-2.52 8.98,-5.27128 13.7,-7.48128 -0.3,7.37 -2.33,14.50096 -3.5,21.76096 -5.49,1.54 -11.06062,3.03904 -15.99062,5.98904 -7.54,4.12 -12.79,11.68032 -15.3,19.77032 -0.48,3.31 -1.29062,7.42032 1.15938,10.17032 6.15,4.61 15.22093,2.57 20.31093,-2.7 6.61,-6.23 9.80031,-14.94936 12.87031,-23.25936 0.74,-1.71 1.22938,-3.85128 3.05938,-4.73128 4.67,-2.71 9.60031,-5.11904 14.92031,-6.23904 2.61,5.17 4.84,10.52936 7.45,15.70936 3.36,-3.28 6.72938,-6.56936 10.40938,-9.50936 -6.01,-9.86 -11.61,-19.96032 -17.45,-29.92031 -1.84687,-3.10313 -4.29949,-6.99687 -8.26563,-7.02656 z M 637.4,804.59064 c 3.47,4.45 6.52062,9.22872 9.04062,14.26872 -4.18,1.15 -8.43062,2.02064 -12.64062,3.09064 1.04,-5.82 2.16,-11.62936 3.6,-17.35936 z m -11.17969,27.23904 c -1.99,5.49 -3.25,11.29032 -5.9,16.52032 -2.86,2.68 -6.97031,4.38936 -10.92031,3.50936 -2.67,-1.96 -4.43031,-6.1 -2.92031,-9.15 5.99,-4.6 13.24062,-7.10968 19.74062,-10.87968 z"
     fill="#828282" id="path174"/>
</svg>
